<?xml version='1.0' encoding='utf-8'?>
<svg xmlns="http://www.w3.org/2000/svg" enable-background="new 0 0 841.9 595.3" version="1.1" viewBox="0 0 841.9 595.3"> <rect width="841.9" height="595.3" fill="#EDEDED"/> <path d="m366.2 430c0.6-0.3 1.2-0.2 1.8-0.2 11.9 0 23.9-0.4 35.8-0.3 8.2 0.1 16.3 0.1 24.5 0.3 10.5 0.2 21 0.5 31.5 0.8 8.7 0.3 17.3 0.6 26 1.1 10.6 0.6 21.3 1.2 31.9 1.9 11.4 0.8 22.7 1.9 33.9 3.6 5.3 0.8 10.6 1.2 15.7 3 1.1 0.4 2.2 0.7 3.1 1.5 1.6 1.3 1.6 3-0.1 4.3-1.3 1-2.9 1.4-4.5 1.8-5.4 1.3-11 1.9-16.5 2.5-12.8 1.3-25.5 2-38.4 2.3-5.3 0.1-10.5 0.3-15.8 0.4-15 0.3-30 0.4-45 0.2-11-0.1-22-0.3-33.1-0.6-8.3-0.2-16.6-0.5-24.9-0.8-7.9-0.3-15.7-0.7-23.6-1.1-0.4 0-0.7-0.1-1.1-0.2-0.1-1.1 0.8-1.6 1.4-2.2 2.8-2.9 4.3-6.4 4.2-10.5-0.1-2.1-0.6-4.2-1.6-6.1-0.5-1-1.2-1.4-2.3-1.4-0.8 0.2-1.9 0.6-2.9-0.3z" fill="#9E9B90"/> <path d="m303.1 312.4c-0.9-0.3-1.8 0.1-2.6 0.4-4.1 1.4-8.3 1.9-12.6 1.9-6.9 0-11.8-5.2-11.2-12.1 0.4-4.1 1.5-8 2.8-11.8 1.3-4 4.3-6.8 7-9.8 4.7-5.2 10.3-9.5 16.1-13.4 0.8 0 1 0.6 1.2 1.1 1.5 3 3.5 5.7 5.5 8.5 0.4 0.5 1 1 0.7 1.8-3.9 2.4-7.4 5.4-10.2 9-1 1.2-1.7 2.7-1.8 4.3-0.1 1.7 0.6 2.5 2.3 2.6 2.7 0.1 5.2-0.7 7.5-1.9 0.7 1.2 0.7 2.6 1.4 3.9 1.4 2.5 2.9 4.8 4.4 7.2 0.3 0.5 0.7 1 0.8 1.6 0.2 1.4 0.8 2.1 2.2 2.2s2.5-0.4 3.6-1.2c1.3-1.1 2.6-2.2 3.7-3.5 0.3-0.4 0.8-1.2 1.4-0.2-0.4 2.4-1 4.7-1.7 7-0.4 0.5-0.9 0.3-1.4 0.1-0.9-0.3-1.5 0-2.1 0.7-1.7 1.8-2.5 4-2.9 6.5-0.2 1.2 0.6 2.1 1.4 2.8 2.3 1.5 4.7 1.2 7.2-1 0.4-0.4 0.8-1.2 1.6-0.6 0.4 0.6 0.3 1.3 0.3 2-0.4 6.3-0.4 12.6 0 18.9 0.1 2.5 0.2 5.1 0.3 7.6 0.2 6.3 0.6 12.7 0.7 19 0.1 5.1 0.8 10.3 1.4 15.4 0.2 1.6 0.3 3.2 0.5 4.8 0.2 1.9 0.1 2-1.7 2.3-0.2 0-0.4 0.1-0.5 0.1-6.6 1.8-13.4 2.9-20.2 3.8-1.5 0.2-3 0.5-4.5-0.2-1.3-0.3-2-1.2-2.2-2.5-0.9-4.1-0.7-8.3-0.4-12.4 0.3-5.5 1-11 1.5-16.5 0.8-9.2 1.5-18.4 1.4-27.6 0-2.8-0.4-5.5-0.2-8.3 1.4-4.5 3.7-8.6 6.3-12.5 0.4-0.6 0.8-1.1 1.2-1.7 0.3-0.4 0.5-1 0.1-1.4s-0.9-0.2-1.3 0c-1.8 0.9-3.5 1.9-5.3 2.7-0.5 0.2-1 0.7-1.7 0.4z" fill="#E17A5F"/> <path d="m552.2 184.2c-0.1 0.8-0.5 1.6-0.8 2.4-1.6 0.8-3.1 1.7-4.7 2.6-3 1.8-3.8 5.3-0.3 7.5 0.1 0.8-0.2 1.3-0.8 1.8-2.7 0.3-4 1.5-4.6 4-0.7 3 0 5.1 2.6 6.9 0.4 0.6 0.2 1-0.3 1.4-2.3 0.5-3.2 1.5-3.5 4.1-0.3 2.3 0.5 3.8 2.4 4.8l0.6 0.3c0.4 0.6 0.2 1.1-0.3 1.6-1.3 0.6-2.1 1.8-2.6 3-0.7 1.5-0.9 3.2-0.8 4.8 0 1.1 0.3 2.2 1.7 2.5 0.5 0.7 0.4 1.2-0.4 1.3v0.3c-3.7 0.9-6.3 3-7.3 6.7-0.2 0.8-0.4 1.6 0.2 2.4 0.3 0.8-0.2 1.2-0.9 1.4-4.1-1-7.3 0.4-9.8 3.6-1 1.3-1.2 2.8-1 4.4 0.2 0.9-0.2 1.5-1.1 2-8.5 1.2-16.9 0-25.3-1.5-5.9-1-12-1.6-18-2.3-14.4-1.7-28.6-4.4-42.3-9.3-9-3.2-17.8-6.6-26.3-10.9-7-3.5-12.9-8.5-18.4-14.1-0.6-0.4-1.1-0.9-1.1-1.7l0.1-0.1c0-0.5-0.2-1.1 0.2-1.5-0.6-0.4-0.6-0.9-0.2-1.5 3.3-2.3 6.8-4.4 10.3-6.4 10.3-5.8 21.1-10 32.3-13.6 10.8-3.4 21.8-5.7 33.1-6.9 9.5-1.1 19-2.2 28.5-2.7 9.4-0.5 18.8-0.4 28.2-0.2 9.3 0.2 18.7 0.8 28 2.1 1 0.1 1.9 0.3 2.6 0.8z" fill="#81B29A"/> <path d="m364.3 391.8c-2.9 0-5.7-0.7-8.5-1-4.3-0.4-8.5-0.6-12.8-0.7-1.6 0.6-3.1 0.1-4.7 0.2-1.3 0.1-2.5-0.2-3.8-0.3-0.6 0-1.3-0.2-1.6-0.8-0.4-1.3-0.3-2.6-0.1-3.9 0.3-0.7 0.7-0.4 1.1-0.2 0.6 0.4 1.2 0.6 1.7 0s0.5-1.3 0.2-1.9c-0.4-0.7-1-0.7-1.7-0.4-0.5 0.2-0.9 0.5-1.3-0.2-0.4-0.9-0.4-1.8-0.4-2.7-0.1-4.7-0.8-9.4-1-14-0.3-6.4-1.4-12.7-1.7-19.1-0.1-1.3 0.2-2.6 0.2-3.9 0.1-3.6-0.4-7.2-0.3-10.8 0.2-4.1 0.2-8.1-0.4-12.1-0.2-1.5 0.9-2.4 1.5-3.4 0.3-0.5 0.7-0.5 1.2-0.2 0.8 0.4 1.5 0.2 1.8-0.6s-0.1-1.4-0.9-1.7c-0.3-0.1-0.7-0.2-0.9-0.5-0.3-0.9-0.5-1.8-0.8-2.6s-0.2-1.6 0.5-2.3c0.7-0.4 1.1 0.2 1.5 0.6 4.7 5.4 10 10.2 15.5 14.7 0.5 0.4 1.1 0.7 1.1 1.5-0.9 8.7 2.8 16.3 6.4 23.8 1.1 2.2 2.2 4.4 2.1 6.9-0.1 5.8 1.3 11.2 2.7 16.7 0.4 1.6 0.6 3.3 0.8 4.9 0.4 3.9 1.9 7.5 2.8 11.3 0.1 0.9 0.6 1.8-0.2 2.7z" fill="#E17A5F"/> <path d="m312.5 261c1.5-1.1 1.4-1 0.4-2.5-2.8-4.1-4.8-8.6-5.8-13.5-1.4-6.6-0.9-13 0.5-19.6 1.8-8.2 6.7-13.6 13.9-17.2 5.9-3 12.3-4.8 19-4.8 4.8 0 9.5 1 14.1 2.5 7.1 2.3 13.7 5.9 20.4 9.2-0.1 0.6-0.5 1.1-0.9 1.5-5.8 6.4-12.1 12.4-18.9 17.8-3.7 3-7.2 6.3-10.8 9.5-0.7 0.6-1.5 1.2-2.3 1.8-0.4 0.3-0.7 0.8-1.3 0.5-0.3-0.6 0.2-1.1 0.4-1.5 0.7-1.3 1.6-2.5 2.4-3.7 0.7-1 1.3-2.1 1.7-3.3 1-2.9 1.7-6 1.7-9.1 0-5.6-1.3-10.7-6.5-13.9-2.2-1.2-4.5-1.9-6.9-2.5-4.3-0.8-8 0.3-11.3 3-1.1 0.9-2.3 1.9-3.2 3-2.6 3.1-3.5 6.8-3.7 10.6-0.4 7.6 1.7 14.5 6.4 20.5 0.5 0.6 0.9 1.3 1.8 1.5 0.1 0 0.3 0.1 0.4 0.2 0.9 0.7 1.4 1.8 2.2 2.6 1.3 1.4 2.8 2.2 4.7 2.4 0.5 0.1 1 0.1 1.4 0.5 1.4 0.7 2.3 1.9 3.5 2.8 2 2.4 3.5 2.8 6.5 1.7 1.1-0.4 2-1.4 3.3-1 0.2 1.3-0.7 2.3-1 3.4-2.7 1.3-5.5 2.2-8.6 1.9-0.8-0.1-7.1-1.8-8.1-3.1-0.5-0.6-0.7-1.4-1-2.1s-0.4-1.4-1.1-2c-0.4 0.9-0.1 1.6 0.2 2.3 0.5 1.2 1 2.3 1.9 3.2 0.4 0.4 0.8 0.8 0.8 1.4-0.5 5.4-0.5 10.9-0.7 16.3-0.5 1.2-1 0.3-1.4-0.1-1.3-1.7-2.8-3.4-3.9-5.3-2.8-4.6-6.1-8.9-9.3-13.3-0.8-0.4-1.6-0.8-0.9-1.6z" fill="#E17A5F"/> <path d="m364.3 391.8c0.1-2-0.7-3.8-1.2-5.6-1.2-3.6-1.9-7.2-2.3-10.9-0.4-3-1.4-5.8-2-8.7-0.6-2.8-1.1-5.7-1-8.6 0-3.1-0.7-5.9-2.2-8.7-3-5.4-4.9-11.3-6.3-17.3-0.5-2.3-0.5-4.6 0.2-6.9 0.5-0.2 0.8 0.2 1.1 0.4 4 2.9 7.7 6.1 12 8.6 0.6 0.3 1 0.8 1.1 1.5 0.9 1.4 1.7 2.7 2.6 4.1 0.5 0.8 0.8 1.7 0.9 2.7 0.1 2.5 1 4.4 3.2 5.8 1.8 1.1 2.9 2.9 3.6 4.9 0.6 1.7 1.1 3.5 1.4 5.3 0.4 2.8 1.6 5.3 3.8 7.2 0.8 0.7 1.5 1.5 2.1 2.4 1.6 2.4 2.7 5.1 3.5 7.8l0.3 1.5c0.6 2.7 1.9 4.8 4.5 5.9 0.8 0.4 1.6 0.9 2.5 1.2 2.9 1 4.5 3.7 6.8 5.5 1.2 1 0.1 2.6-1.9 2.8-2.1 0.2-4.1 0.5-6.2 0.3-6.2-0.8-12.4-0.4-18.6-0.6-2.8-0.2-5.4 0-7.9-0.6z" fill="#CD7057"/> <path d="m356 267.3c1.4 1.6 3 3 4 4.9 1.2 0.9 1.7 2.3 2.4 3.6 1 2 2.2 3.8 3.5 5.6 3.4 6.7 5.7 13.8 6.2 21.4 0.1 1.9 0.2 3.8-0.3 5.6-1 3.5-3 6.4-5.8 8.8-2.1 1.8-4.6 1.6-7.1 1-0.3-0.1-0.5-0.1-0.8-0.2-2.5-0.5-4.5-2-6.8-3.1-0.3-0.2-0.6-0.4-0.8-0.8-0.3-1.5-0.1-3-0.4-4.5-1.3-6.1-2.5-12.3-5.4-18-0.4-0.8-0.6-1.6 0.1-2.3s1.4-0.4 2.2 0c2.3 1.2 4.7 2.3 6.9 3.9 0.5 0.3 1 0.7 1.5 1 0.5 0.2 0.9 0.4 1.4 0 0.4-0.4 0.3-0.8 0.2-1.3-1.2-5.7-3-11.1-5.5-16.3-0.5-1-0.9-2.5-1.9-2.6s-1.4 1.4-2 2.2c-1.3 1.8-2.2 4-3.5 5.8-0.5 0.7-0.4 1.3 0.1 1.9 0.6 0.8 0.9 1.7 1.1 2.7 0.3 1.6-0.3 3-1.6 3.9-1 0.7-1.8 0.5-2.5-0.5 0.6-1.4 0-2.4-1-3.3-0.6-0.6-1.4-1-1.7-1.9 0-0.8 0.5-1.3 0.9-2 2.7-4.9 5.9-9.6 9.1-14.3 0.4-0.6 0.9-1.3 1.8-1.4 1.6 0.2 3.1 0.5 4.7 0 0.2-0.2 0.7-0.2 1 0.2z" fill="#CD7057"/> <path d="m366.2 430c1.2 0 2.5 0.1 3.7 0 0.9 0 1.4 0.3 1.8 1 3.3 5.3 2.5 12.8-1.9 17.2-0.7 0.8-1.6 1.4-2.2 2.3-4.2 0-8.5-0.4-12.7-0.7-7.1-0.5-14.2-1.1-21.4-1.8-11-1.1-22-2.1-32.8-4.7-1.6-0.4-3.2-0.9-4.7-1.6-0.8-0.4-1.6-0.8-1.9-1.7 0.1-0.1 0.3-0.1 0.4-0.1 2.6 1.3 5.1 2.5 8.1 2.6 1.4 0.1 2.9 0 4.3-0.2 3.8-0.5 7.5-1.3 10.9-3.3 1.4-0.8 2.1-1.8 2.3-3.3 0.2-1.2 0-2.5 0.6-3.7 0.9-0.7 1.8-0.6 2.8-0.3 0.7 0.7 0.5 1.6 0.5 2.4 0 1.5 0.3 2.9 1.1 4.2 0.6 1.2 1.7 1.8 2.8 2.4 5.5 3 10.9 2.2 16.3-0.3 0.4-0.2 0.8-0.4 1.2-0.7 3.1-1.7 4.7-4.3 4.6-7.9 0-0.7-0.2-1.6 0.9-1.6 5.2 0.1 10.2-0.2 15.3-0.2z" fill="#8B897F"/> <path d="m340.7 246.2c1.8-1 3.3-2.4 4.9-3.8 5.1-4.6 10.3-9 15.5-13.4 4.9-4.1 9.2-8.7 13.4-13.5 0.1-0.1 0.3-0.2 0.4-0.3 2.1 0.8 4.1 1.7 6.1 2.8 0.1 0.7-0.5 1.1-0.9 1.5-3.3 3.6-6.6 7.2-9.7 11-5.5 6.8-10.4 13.9-15.4 21.1-1.2 1.7-2.5 3.4-3.7 5.2-0.2 0.4-0.6 0.7-1 0.9-3.2-0.1-6 1-8.8 2.3-1.6 0.8-3.4 0.9-4.9-0.5-0.6-0.6-1-0.3-1.4 0.1-0.1 0-0.3 0-0.4-0.1-0.8-1.1-2.1-1.8-3-2.8 0-0.9 0.7-1.4 1.2-1.9 2.3-2.6 4.6-5.1 6.6-7.9 0.3-0.4 0.6-0.7 1.1-0.7z" fill="#CD7057"/> <path d="m303 421c-0.4-1.6 0.2-3.2 0.2-4.8 0.1-7.3 0.4-14.5 0.3-21.8 0-0.7-0.1-1.4 0.2-2 0.6 0.5 0.5 1.2 0.5 1.8 0.1 1.3 0.2 1.4 1.5 1.1 3.3-0.9 6.6-1.9 10.1-2.3 0.9-0.1 1.8-0.1 2.8-0.2 0.9 0 1.3 0.4 1.4 1.3v1c0.1 8.7 0.5 17.4 1.3 26 0.1 0.6 0.1 1.1-0.3 1.6-0.4 0.3-0.8 0.4-1.3 0.4-4.6 0.2-9.2-0.1-13.8-0.8-1.1-0.1-2.3-0.2-2.9-1.3z" fill="#81B29A"/> <path d="m365.4 281.4c-2.3-2.7-3.7-6.1-5.5-9.2 7 2.3 13.8 4.8 20.4 8.1 0.3 0.2 0.7 0.4 1 0.3 3.3-1 6.7-0.5 10-0.5 4-0.1 7.9-0.1 11.9 0.1s7.9 0.1 11.9 0.2h1.2c3.8 0 4 0.2 3.2 3.9-7.8-0.1-15.7-0.5-23.5-0.4-4 0.1-7.9 0.1-11.9 0.6 4-0.4 8.1-0.5 12.1-0.6 7-0.1 14.1 0.3 21.2 0.2 0.8 0 1.4 0.3 2.2 0.4 1.8 1.2 3.6 2.5 5.5 3.7-0.3 0.9-1.1 0.7-1.7 0.7-2.5 0-5.1-0.1-7.6-0.2-6.6-0.2-13.2-0.2-19.8 0-2.8 0.1-5.5 0.3-8.3 0.5-2.1 0.2-2.1 0.2-2.6 2.2l-0.3 0.6c-0.6 0.2-0.6-0.3-0.7-0.6-0.2-0.5-0.1-1.1-0.2-1.6-2-1.3-4.3-2.1-6.5-2.9-0.1 0-0.3-0.1-0.4-0.1-3.6-1.2-6.8-3.3-10.4-4.5-0.5-0.3-0.8-0.7-1.2-0.9z" fill="#DDBA82"/> <path d="m426.7 317.6c4 0.2 8-0.4 12-0.5 2.2 0 4.4-0.1 6.6-0.1 1.1 0 1.7 0.7 1.8 1.7 0.1 0.9 0 1.8-0.4 2.5-0.9 1.5-0.8 3-0.4 4.7 0.6 2.3-0.1 3.2-2.5 3.3-3.4 0.1-6.8-0.1-10.2 0.3-2.1 0.2-4.1-0.7-6.2-0.6-0.1 0.1-0.3 0.2-0.4 0.3-5 0.4-10.1 1.2-15.1 0.5-1.8-0.2-2.1-0.5-2.1-2.3 0-3.4 0.3-6.8 0.4-10.2 0-0.3 0.1-0.5 0.3-0.8 4.5 1.2 9.1 0.9 13.7 0.6 0.8 0.1 1.7 0 2.5 0.6z" fill="#E4C087"/> <path d="m614.4 297.6c-2.7 0-5.3 0.1-8 0-0.8 0-1.7-0.1-2.5-0.1-29.3 0-58.7 0-88-0.1-6.8 0-13.6-0.2-20.4-0.6-5.9-0.3-11.7-0.9-17.6-1.4-0.7-0.1-1.4-0.2-2-0.4-0.3-0.1-0.7-0.2-0.7-0.6s0.4-0.5 0.7-0.6c1.1-0.3 2.2-0.6 3.4-0.6 4.5 0 9.1-0.2 13.6 0 6.5 0.3 13.1 0.1 19.6 0.2 11.9 0.1 23.9 0.1 35.8 0.4 5.5 0.1 11 0.1 16.5 0.2 5.5 0.2 11 0.3 16.6 0.6 6.2 0.3 12.4 0.6 18.6 1.1 4.5 0.3 9 0.9 13.4 1.4 0.3 0.1 0.7 0.2 1 0.5z" fill="#C6C6C6"/> <path d="m320.9 422.5c-0.4-4.9-0.7-9.9-1.1-14.8v-0.6c0.1-4.3-0.5-8.5-0.3-12.8 0-0.9-0.2-1.2-1.2-1.2-4.3 0.1-8.3 1.4-12.4 2.5-0.3 0.1-0.5 0.2-0.8 0.3-1 0.3-1.7 0.3-1.5-1.1 0.1-0.8 0-1.7 0-2.5v-0.2c4.7 0 9.3-1.1 14-1.7 3.6-0.5 7-1.7 10.5-2.3 1.2 0 2.4-0.3 3.5 0.1 0.5 0.2 1.1 0.4 1.4 0.9 2 0.7 4 0.6 6.1 0.7 1.3 0.1 2.6 0 4 0.3 0.4 9.2-0.2 18.3-0.7 27.4-0.1 1.2 0.1 2.4 0.3 3.6 0.3 1.1-0.4 1.3-1.2 1.4-0.9 0.1-1.8 0-2.6-0.5-0.4-0.5-0.5-1.2-0.6-1.8-0.7-4.2-1.1-8.5-1.1-12.8 0-4.2-0.5-8.5-0.3-12.7 0-1.1-0.3-1.6-1.5-1.6-2.6 0.1-5.1-0.5-7.7-0.1-1.1 0.2-1.7 0.5-1.8 1.8-0.4 5.6-0.8 11.2-1.3 16.8-0.2 2.3-0.2 4.6-0.3 6.9-0.1 0.4-0.1 0.8-0.1 1.2-0.1 1.9-0.4 2.4-2.3 3.1-0.5 0.1-0.8 0.1-1-0.3z" fill="#719C86"/> <path d="m427.2 329h0.3c0.1 3.8 0 7.5-0.2 11.3-0.1 1.2-0.5 1.8-1.7 1.8-2.1-0.1-4.1-0.3-6.2-0.5-0.7-0.1-1.5-0.2-2.2 0.1-2.5 0.9-5.1 0.4-7.7 0.1-4.4-0.5-8.9-0.9-13.3-1.3-3.7-0.4-7.4-0.6-11.2-0.8-0.9-0.1-1.4-0.5-1.5-1.5-0.4-2.8-0.3-5.5-0.3-8.3 0-1.3 0.6-1.8 1.9-1.4 3.6 0.8 7.3 1.1 10.9 1.7 0.6 0.1 1.1 0.2 1.5 0.6 0.5 0.6 0.8 1.2 1.3 1.8 0.7 0.6 1.6 0.7 2.4 0.7h6.2c0.9 0 1.6-0.2 2.2-1 0.7-1.1 1.8-1.3 3-1.3 3.7 0 7.4-0.1 11 0 1.8 0.1 3.2 0.1 3.6-2z" fill="#F3CC8E"/> <path d="m427.2 296.9c0.6 0.6 1.1 0 1.7 0 4.5-0.3 8.9-0.7 13.4-0.6 0.8 0 1.6-0.3 2.5 0 1.6 0.5 2.2 1.6 1.8 3.2-0.2 0.5-0.3 1.1-0.6 1.6-0.8 1.3-1 2.7-0.9 4.2 0.2 2.9-0.7 3.7-3.7 3.8-4.9 0.2-9.7 0.3-14.6 0-0.4 0.4-1 0.5-1.5 0.5-3.6-0.6-7.2 0.2-10.8 0-0.7 0-1.4 0-2.1-0.1s-1.3-0.5-1.3-1.2c-0.1-3.2 0.1-6.4 0.4-9.6 0-0.3 0.2-0.5 0.4-0.7 1.5-0.7 3.1-0.6 4.7-0.7 3.1-0.1 6.1-0.1 9.2-0.6 0.4 0 0.9-0.1 1.4 0.2z" fill="#E4C087"/> <path d="m294.5 440.1h-0.3c-3.8-2.8-4.9-6.4-3.6-10.8 1.1-3.7 3.9-5.7 7.2-7.1 1.2-0.5 2.5-0.9 3.9-0.9 1.2 0.3 2.2 1.1 3.4 1.5 2.1 0.6 4.2 1.2 6.4 1.1 1.6 0 2 0.4 1.8 2-0.6 3.6-0.6 7.2-0.6 10.9 0 2.1-0.2 2.5-2.3 3.2-5.2 1.7-10.6 1.5-15.9 0.1z" fill="#F3CC8E"/> <path d="m427.2 296.9c-1.9 0.6-3.9 0.7-5.8 0.7-3.1 0.1-6.2 0.3-9.4 0.3-0.7-0.4-0.7-1.2-0.9-1.9s-0.6-1.3-1.4-1.4c-2.6-0.7-5.2-0.4-7.8-0.2-1.3 0.1-1.8 1-1.9 2.2-0.1 0.8 0.1 1.6-0.8 2.1-4.5 0-9 0.6-13.2-1.6-0.6-0.3-1.3-0.5-1.6-1.2-0.3-1.4-0.6-2.8 0.3-4.1l0.3-0.6c0.3-2.6 0.3-2.5 2.8-2.7 9.5-0.8 18.9-0.6 28.4-0.5 2.6 0 5.2 0.2 7.9 0.2 0.4 0 0.9 0.1 1.3-0.2 1.6 1 1.8 2.6 1.9 4.2 0 1.6-0.1 3.2-0.1 4.7z" fill="#F3CC8E"/> <path d="m385.9 220.2c3.3 2.2 4.4 4.9 3.2 9.4-1.3 4.8-4 8.8-7.7 12.1-3.6 3.2-7.7 5.8-12.1 8-3.9 2-7.6 4.3-11.6 6.1-0.3-0.6 0.2-1.1 0.5-1.5 5.8-8.4 11.6-16.7 18.2-24.5 2.6-3.1 5.5-6.1 8.3-9.1 0.2-0.4 0.6-0.8 1.2-0.5z" fill="#CD7057"/> <path d="m350.8 314.1c2.3 1.3 4.6 2.8 7.2 3.5 1.6 2.2 3.8 3.7 6.1 5 0.6 0.3 1.2 0.6 1.6 1.1 2.2 2.2 5.1 3.1 7.9 4.2 0.7 0.3 1.5 0.4 2 1.1 0.1 0.3 0.1 0.6 0 1-0.8 2.9 0.6 5 2.6 6.8 1.7 1.6 3.7 2.7 5.4 4.3 0.2 0.2 0.4 0 0.6 0.1 0.3 0.3 0.6 0.8 0.5 1.2-0.2 0.5-0.8 0.2-1.2 0.3-0.4 0-0.9 0.1-1.3-0.1-4.1-0.1-7.7-1.7-11.3-3.3-3.3-2.2-6.1-4.8-9-7.5-6.7-6.2-12.7-13-18.3-20.1-0.5-0.6-1-1.3-1.7-1.6-2.7-1.3-5-3.3-7.5-4.9-0.8-0.5-1.2-0.5-1.5 0.4s-0.5 1.9-1.3 2.5c-1.5-0.4-2-1.7-2.7-2.9 0.4-1.9 1.1-3.6 2-5.2 0.6-0.2 1.3-0.1 1.9 0 0.1 0 0.3 0.1 0.4 0.2 0.3 1 1 1.7 1.8 2.3 4.8 3.8 9.7 7.5 14.9 10.7 0.2 0.2 0.6 0.5 0.9 0.9z" fill="#DDBA82"/> <path d="m544.9 384.8c-0.7 0.6-1.2 0.4-1.7 0.5-4.8 0-9.6-0.1-14.4 0.1-9.3 0.3-18.6 0.4-27.9 0.6-4.6 0.1-9.1 0-13.7 0.2-5.5 0.2-11 0.1-16.4 0.3-10.4 0.4-20.8 0.2-31.1 0.1-2.7 0-5.4 0-8.1-0.5-0.4-0.1-0.8 0-0.9-0.4-0.1-0.5 0.4-0.7 0.7-0.8 1.5-0.7 3.1-0.7 4.7-0.9 2-0.2 4-0.3 6.1-0.3 5.8-0.1 11.6-0.2 17.4-0.3 18.7-0.6 37.5-0.2 56.2-0.2 6.5 0 13.1 0.5 19.6 0.8 3.1 0.1 6.2 0.4 9.5 0.8z" fill="#C6C6C6"/> <path d="m463.3 142.3c-1.8 0.2-3.5 0.5-5.3 0.6-5.7 0.4-11.5 0.9-17.2 1.2-6.5 0.3-13 0.9-19.5 1.4-5 0.4-10.1 0.7-15.1 1.1-6.1 0.5-12.3 0.9-18.4 1.4-5 0.4-10 0.7-15 1.1-6 0.4-11.9 0.8-17.9 1.1-5.8 0.3-11.5 0.6-17.3 0.4-2-0.1-4 0-6.2-0.7 0.9-0.6 1.7-0.5 2.5-0.6 1.6-0.2 3.2-0.3 4.8-0.3 5.5-0.2 11-0.6 16.5-1.1 3.9-0.4 7.9-0.6 11.8-0.9 4.9-0.4 9.8-0.9 14.7-1.3l8.1-0.6c6.1-0.4 12.1-0.9 18.2-1.3 3.3-0.2 6.5-0.5 9.8-0.6 6.1-0.2 12.1-0.5 18.2-0.7 3.3-0.1 6.6-0.1 9.9-0.2 4.5-0.1 9-0.2 13.5-0.3 1.3 0.1 2.6-0.3 3.9 0.3z" fill="#C6C6C6"/> <path d="m661.2 220.2c-3.6 0-7.2 0.1-10.7 0-6.2-0.1-12.4 0.2-18.5 0.4-3.6 0.1-7.2 0-10.8 0.2-5.6 0.4-11.3 0-16.9 0.3-4.8 0.3-9.7 0.2-14.5 0.1-3.2 0-6.4-0.1-9.6-0.5-0.3 0-0.6-0.1-0.9-0.2-0.6-0.2-1.2-0.4-1.1-1.2 0-0.6 0.5-0.9 1.1-1.1 1.9-0.7 3.8-0.6 5.7-0.7 1.6-0.1 3.3 0 5-0.1 12-0.3 24.1-0.3 36.1-0.2 5.2 0 10.5 0.2 15.7 0.6 6.3 0.4 12.6 0.8 18.8 1.9 0.2 0 0.5-0.1 0.6 0.5z" fill="#C6C6C6"/> <path d="m338.8 422.1c0.7 0.1 1.3 0.2 2 0.2 0.8 0 1.6 0 1.7-1 3.7 1.6 6 4.4 7.4 8 0.2 0.5 0.2 1.2 1.1 1.2-0.2 0.2-0.7 0.2-0.6 0.8 0.5 4.7-1.7 7.7-5.8 9.6-4.6 2.2-9.4 3.2-14.4 1.4-2-0.7-4-1.6-5.2-3.6 1-0.5 1.9-0.1 2.8 0.1 3.1 0.6 6.1 1.2 9.3 1.1 1.9-0.1 2.1-0.3 2.4-2.1 0.8-4.2 0.2-8.3-1.1-12.4-0.3-0.9-0.8-1.2-1.7-1.1-3.3 0.5-6.7 0.7-10 1.1-2.3 0.3-2.6 0-2.5-2.3 0.1-0.3 0.2-0.5 0.4-0.6 0.5-0.3 1-0.3 1.6-0.3 3.1 0.1 6.1-0.2 9.2-0.5 1.1-0.2 2.3-0.5 3.4 0.4z" fill="#E4C086"/> <path d="m538.2 346c1.4-0.2 2.5-0.4 3.6-0.4 14.6-0.4 29.1-0.4 43.7-0.2 6.2 0.1 12.4 0.1 18.7 0.2 4.9 0.1 9.8 0.3 14.8 0.6 6 0.4 12 0.9 18 1.4 0.3 0 0.7 0 0.8 0.4-0.4 0.5-0.9 0.3-1.4 0.3-3.6 0-7.1 0-10.7 0.1-9 0.3-18.1 0.4-27.1 0.2-7.3-0.1-14.6-0.1-21.8-0.3-6-0.1-12-0.3-17.9-0.6-4.2-0.2-8.5-0.4-12.7-0.6-2.2-0.1-4.5-0.3-6.7-0.5-0.5 0.1-0.9 0-1.3-0.6z" fill="#C6C6C6"/> <path d="m426.7 317.6c-3.5 0.1-7.1 0.4-10.6 0.3-1.5-0.1-3-0.4-4.5-0.3-0.9 0.1-0.6-0.8-1-1.1-0.6-0.3-0.7-1-1.3-1.3-0.2-0.1-0.5-0.3-0.7-0.4-2.6-0.2-5.3-0.3-8-0.4-1.1 0-1.5 0.9-1.9 1.8-0.6 2.1-0.6 2.1-2.9 1.9-2.1-0.2-4.2 0-6.3-0.3-1.7-0.3-3.2-1-4.6-1.7-0.5-0.2-0.9-0.6-0.9-1.1-0.1-1.4-0.2-2.9 0-4.3 0.1-0.8 0.8-0.9 1.5-1 4.4 0 8.8-0.2 13.2 0.4 0.8 0.3 1.1 1 1.5 1.6 0.4 0.5 0.8 0.7 1.4 0.8 2 0.5 4.1 0.6 6.2 0.4 1.1-0.1 2.1-0.4 2.7-1.4 0.6-0.8 1.4-1 2.3-1.1 4.4-0.1 8.7 0.1 13.1-0.1 0.3 0 0.5 0.1 0.8 0.3v7z" fill="#F3CC8E"/> <path d="m385.9 220.2c-1.8 1.8-3.7 3.5-5.4 5.5-4.5 5-8.7 10.2-12.7 15.7-3.4 4.8-6.9 9.5-10.1 14.5-1 0.9-1.6 2-2.3 3-0.1 1-0.6 1.8-1.5 2.3-0.7 0.9-1.4 1.8-1.9 2.8 0.1 0.8-0.6 1.3-0.9 1.9-0.4 0.5-0.6 1.1-1.2 1.4-1.4 1.3-2.3 3.1-3.4 4.7-2.8 4.2-5.5 8.4-7.9 12.8-0.8 0.2-1.3-0.2-1.8-0.8-0.2-0.6 0.1-1.1 0.3-1.6 0.8-1.6 1.6-3.2 2.6-4.7 2.4-3.7 4.1-7.8 6.5-11.5 2.2-3.4 4.2-7 6.7-10.1 1.9-2.3 3.6-4.8 5.3-7.2 4.7-6.4 9.7-12.7 14.8-18.8 4.5-5.3 9.5-10.2 14.7-14.8 0.4-0.4 0.8-0.8 1.4-0.8 0.8 0.2 0.8 0.9 1.1 1.4-1.4 1.3-3.1 2.5-4.3 4.3z" fill="#8C8A80"/> <path d="m310 278.9c-2.7-3.7-5.2-7.4-7.4-11.3-1.3-1.5-0.4-2.3 0.8-3.3s2.5-1.9 3.8-2.6c1.4 0.9 2 2.4 2.8 3.7 3 4.9 6.5 9.3 9.6 14 1.7 2.6 3.6 5.1 5.3 7.8-0.2 1.5-0.3 3-0.6 4.6-0.6 0.6-0.8 0-1-0.3-0.5-0.6-0.9-1.2-1.6-1.5-2-1.5-4.2-1.9-6.6-1.7-0.9-3-3-5.3-4.5-7.9-0.2-0.5-0.7-0.9-0.6-1.5z" fill="#F3CC8E"/> <path d="m331.3 308c0.4-1.2 0.9-2.3 1.3-3.5 0.3-0.8 0.6-0.6 1.1-0.3 1.4 1 2.7 2.2 4.3 3 4.5 2.1 7.1 6.1 10.1 9.7 1.6 1.9 3.1 3.7 4.8 5.5 5.3 5.7 10.8 11.1 17 15.9 0.3 0.2 0.5 0.6 0.8 0.9-2.1-0.6-4-1.7-5.8-3-0.4-0.3-0.8-0.8-1.4-0.7-0.4-0.4-0.7-0.9-1.3-1.2-4.5-2.7-8.6-6.1-12.8-9.3-3-2.6-6.3-5-9.1-7.8-2.4-2.4-5-4.7-7.2-7.4-0.4-0.5-0.9-1.1-1.5-1.4-0.2 0.1-0.3-0.1-0.3-0.4z" fill="#F3CC8E"/> <path d="m294.5 440.1c3.6 0.3 7.2 0.7 10.8 0.5 2.2-0.1 4.2-0.9 6.2-1.6 0.6-0.2 0.7-0.8 0.7-1.4v-5.5c-0.1-2.2 0.3-4.4 0.7-6.5 0.2-1.2-0.2-1.4-1.2-1.3-2.9 0.2-5.6-0.5-8.3-1.7-0.7-0.3-1.3-0.6-1.8-1.3l1.2-0.3c2.2 1.1 4.6 1.1 6.9 1.3 3.7 0.4 7.4 0.4 11 0.3h0.8c0.5 0.4 0.4 1 0.3 1.5-0.4 1.8-0.4 3.7-0.4 5.6 0 0.9-0.1 1.7-0.6 2.5 0 1.6-0.3 3.1-0.5 4.6-0.1 1-0.6 1.5-1.3 2.1-3.7 2.4-7.9 3.4-12.2 4-1.9 0.3-3.8 0.2-5.8 0-2.3-0.4-4.5-1.3-6.5-2.8z" fill="#E4C086"/> <path d="m389.3 214.4c-3.6 2.9-6.7 6.3-10 9.5-3.9 3.8-7.3 7.9-10.7 12.1-5.9 7.2-11.3 14.6-16.8 22.1-3.1 4.2-5.8 8.6-8.2 13.2-1.9 3.8-4.3 7.3-6.2 11.1-0.2 0.5-0.4 0.9-0.6 1.4-1.1 0.2-1.9-0.2-2.7-0.9-0.2-0.7 0.1-1.3 0.4-1.8 3.1-5.6 6.5-11 10.2-16.1 0.4-0.5 0.8-1.1 1.2-1.7 0.9-1.4 1.8-2.7 2.7-4.1 0.5-0.6 0.8-1.4 1.6-1.8 4.5-6.4 9.1-12.9 13.6-19.2 3.4-4.7 7-9.2 10.9-13.5l6-6.6c2.2-1.9 4.1-4.1 6.5-5.9 0.5-0.4 1-0.9 1.7-1 0 0.5 0 1 0.3 1.4 0.2 0.6 0.2 1.2-0.2 1.7 0.3-0.1 0.3 0 0.3 0.1z" fill="#A6A397"/> <path d="m383.7 341.2c0 0.4-0.2 0.4-0.5 0.2-1.7-1.3-3.4-2.6-5.1-4-2.4-2.1-4.2-4.8-2.7-8.4-0.4-2-0.2-4 0.2-6 0.4-1 1.1-1 1.9-0.6 1.2 0.6 2.5 1.1 3.7 1.9 2.9 2 6.2 2.7 9.6 3.1 1.8 0.2 3.6 0.5 5.3 0.7 0.6 0.1 1.2 0.1 1.6 0.7 0.3 0.8 0.5 1.7-0.3 2.4-0.3-0.5-0.8-0.5-1.3-0.6-3.2-0.4-6.5-0.8-9.6-1.4-2.8-0.5-2.8-0.6-2.8 2.2 0 2.3 0 4.5 0.2 6.7 0.1 0.8 0.4 1 1.1 1 5.4 0.1 10.7 0.8 16 1.1 3.9 0.3 7.7 0.9 11.6 1.3 0.9 0.1 1.7 0.1 2.6-0.1 0.6-0.2 1.3-0.3 1.9 0.1l-0.6 0.6c-0.5 0.9-1.4 0.8-2.2 0.7-4.6-0.3-9.2-0.8-13.8-1.2s-9.2-0.7-13.8-1c-0.9 0.2-2 0.1-3 0.6z" fill="#D1B07B"/> <path d="m324.8 286.9c-1.3-1.1-2.2-2.5-3-3.9-3.1-5-6.9-9.6-10.1-14.6-1.4-2.2-2.9-4.5-4.3-6.7 0.7-0.6 1.6-0.9 2.4-1.3 1.1-0.5 1.9 0.2 2.8 0.6-0.1 0.2-0.1 0.4 0.1 0.6 4.4 5.6 8.3 11.7 12.4 17.5 0.7 1 1.5 1.9 2.2 2.8 0.6 0.3 1 0.8 1.2 1.4-1.3 1.3-2.4 2.6-3.7 3.6z" fill="#DDBA82"/> <path d="m383.7 341.2c0-0.7 0.4-0.8 1-0.8 3.3 0 6.6 0.2 9.9 0.5l7.5 0.6c3.8 0.3 7.7 0.7 11.5 1 1 0.1 2 0.3 3-0.2-0.6 2.4-1 2.7-3.5 2.8-3.1 0.1-6-0.6-9-0.9-0.5-0.1-1.1-0.1-1.6-0.1-4-0.1-8 0-12-0.3-2.8-0.2-5.6-0.7-8.4-1h2.5c-0.5-0.8-0.7-1.2-0.9-1.6z" fill="#E5C187"/> <path d="m303.1 312.4c2.2-1.2 4.5-2.3 6.7-3.5 0.7-0.3 1.5-0.8 2 0 0.4 0.7 0.3 1.4-0.3 2.2-2.6 3.4-4.7 7-6.3 10.9-0.4 0.9-0.7 1.9-1 2.9-0.2 0.6-0.3 0-0.5 0 0-4.2-0.7-8.3-0.6-12.5z" fill="#CD7057"/> <path d="m426.6 310.8c-1.4 0.4-2.9 0.2-4.4 0.3h-9.7c-0.7 0-1.4 0.1-1.7 0.8-0.5 1-1.5 1.5-2.5 1.6-2.4 0.2-4.8 0.2-7.1-0.5-0.6-0.2-1.2-0.5-1.5-1.1 0.4-0.4 0.9-0.3 1.4-0.3 2.2 0.1 4.4 0.1 6.6 0 1.6 0 2-0.4 2-2s0.1-3.2 0.3-4.8c-0.1-1.5-0.1-3 0-4.5 0.3-1.6 0-3.1-0.2-4.7-0.1-0.5-0.2-0.9 0-1.3 1.1 0.2 1.2 1.1 1.5 1.9 0.2 0.6 0.3 1.1 0.4 1.7-0.2 0.7-0.3 1.4-0.3 2.2 0.2 2.5-0.3 5-0.3 7.5 0 1.1 0.4 1.4 1.4 1.4 2.3-0.1 4.6 0.1 6.9-0.3 2.3-0.3 4.7 0.3 7 0.2 0.2 0.7 0.2 1.3 0.2 1.9z" fill="#D2B17B"/> <path d="m419.8 284.4c-0.7 0.5-1.4 0-2.1 0-4.4 0.1-8.9 0-13.3 0.1-1.6 0-3.1-0.3-4.7-0.3-5.4 0.1-10.8 0.3-16.3 0.7-0.5 0-0.9-0.1-0.9-0.6 0-0.6 0.5-0.4 0.8-0.4 6.8-0.4 13.7-0.8 20.6-0.5 4.6 0.2 9.2 0.2 13.8 0.2 0.7 0 1.3 0.3 2 0.5 0 0.1 0 0.2 0.1 0.3z" fill="#D0AF7A"/> <path d="m353.9 261.1c0.5-0.8 1-1.6 1.5-2.3 0.9 0.7 1.9 0.5 2.9 0.3 1.6-0.2 3.1-0.1 4.6 0.4 1.2 0.5 2.4 0.3 3.7 0 0.4 0.5 0.2 1.1 0.2 1.6 0 0.1-0.1 0.2-0.2 0.3-1.8 0.5-3.6 0.3-5.4-0.4-1-0.4-2 0-3 0.2-1.5 0.3-2.9 0.3-4.3-0.1z" fill="#EAC58B"/> <path d="m366.6 261.2c-0.5-0.5-0.1-1.1 0-1.6 0.6-1.3 1.9-0.9 2.9-1 0.8-0.1 1.6-0.1 2.3-0.5 0.4-0.2 0.8-0.4 1.2 0s0.3 0.8 0.1 1.3-0.4 0.9-0.6 1.4c-2 0.3-4 0.7-5.9 0.4z" fill="#E17B60"/> <path d="m363.5 267.3c0 0.4 0 0.8-0.1 1.2-0.2 0.9-0.8 1.2-1.5 0.7-1.1-0.7-2.2-1.1-3.5-1.3-0.7-0.1-1.3-0.4-1.4-1.3 0-0.1 0.1-0.2 0.1-0.2 1.9-1.2 3.9-0.9 5.9-0.6 0.8 0.2 0.7 0.9 0.5 1.5z" fill="#CD7158"/> <path d="m366.6 261.2c1.9-0.4 3.8-0.8 5.8-0.5-0.1 0.8 0.2 1.8-0.4 2.5-0.9 1-1.5-0.3-2.3-0.5-1.1-0.3-2.4-0.1-3.2-1.2 0-0.1 0-0.2 0.1-0.3z" fill="#CD7159"/> <path d="m349.9 267.2c0.2-0.6 0.5-1.1 0.9-1.6 1.2-0.5 2.4-0.1 3.6 0 0.9 0.5 1.8 0 2.7 0 0.4 0.3 0.2 0.7 0.1 1.1h-0.2c-0.4 0.1-0.8 0.2-1.1 0.5-2 0.4-4 0.9-6 0z" fill="#EFC98D"/> <path d="m357.2 266.7c0-0.4-0.1-0.7-0.1-1.1 0.2-0.7 0.6-0.9 1.3-0.8 1.3 0.3 2.7 0.3 4-0.1 1.3-0.3 1.5-0.1 1.3 1.2-0.1 0.4-0.2 0.9-0.3 1.3 0.1-0.9-0.3-1.2-1.2-1.2-1.6 0.2-3.4 0-5 0.7z" fill="#E17C60"/> <path d="m543.4 210.8c0.1-0.5 0.2-0.9 0.3-1.4 0.7-0.5 1.4-1.3 2.4-0.5 0.6 0.4 0.8 1 0.6 1.7-0.2 0.8-0.8 1.4-1.6 1.5-0.9 0.1-1.4-0.4-1.7-1.3z" fill="#F3CD90"/> <path d="m551.5 186.6c-0.3-1 0-1.8 0.8-2.4h0.4c1-0.1 1.7 0.2 2 1.2 0.3 0.9-0.3 1.5-1 1.9-1 0.5-1.7 0.2-2.2-0.7z" fill="#F3CD90"/> <path d="m542.6 221.5c0.1-0.5 0.2-1 0.3-1.6 1.3-0.8 2.3-0.7 2.7 0.4 0.3 0.9 0 1.8-0.9 2.2-1 0.4-1.8 0.1-2.1-1z" fill="#F3CD90"/> <path d="m540.4 233.5v-0.3c0.3-0.4 0.5-0.8 0.3-1.4 0.7-0.2 1.4-0.7 2 0 0.4 0.5 0.9 1 0.6 1.8-0.3 0.6-0.8 1.1-1.4 1.1-0.9 0.2-1.4-0.3-1.5-1.2z" fill="#F2CD91"/> <path d="m545.7 198.5c0.1-0.7 0.4-1.3 0.8-1.8 0.9-0.3 1.8-0.6 2.3 0.6 0.3 1-0.3 1.7-1.1 2.1-1 0.6-1.5-0.2-2-0.9z" fill="#F2CD90"/> <path d="m520.5 254c0.4-0.7 0.7-1.3 1.1-2 0.9-0.3 1.7-0.2 2.1 0.7 0.4 0.7-0.1 1.4-0.7 1.8-0.9 0.6-1.8 0.6-2.5-0.5z" fill="#F2CD90"/> <path d="m532.4 244c0.2-0.5 0.8-0.8 0.9-1.4 1-0.4 1.8-0.2 2.1 0.8 0.3 0.9-0.2 1.6-1 1.8-1.1 0.4-1.8 0-2-1.2z" fill="#F2CD91"/> <path d="m384.5 375.8c-1.4-2.5-2.4-5.2-3.5-7.8 2 2.2 3.3 4.8 3.5 7.8z" fill="#E18065"/> <path d="m354.4 265.6c-1.2 0.6-2.4 0.2-3.6 0 0.4-0.6 0.8-1.1 1.1-1.7 0.9 0.5 1.8 1 2.5 1.7z" fill="#CE745B"/> <path d="m331.3 308c0.1 0.2 0.2 0.4 0.3 0.5-0.5 1-0.6 2 0 2.9 0.4 0.6 0.3 1.3 0.3 2-0.3 0.9-0.7 1.9-0.8 2.8 0 0.4-0.1 0.9-0.4 1.1-1.5 1.3-1 2.9-0.9 4.5 0.2 2.3 0.5 4.6 0.3 7-0.2 2.8-0.2 5.6 0.1 8.4 0.2 2.7 0.2 5.4 0 8.1-0.1 2 0.1 4 0.2 6 0.3 3.1 0.7 6.1 1 9.2 0.6 5.4 0.6 10.8 1.3 16.2 0.3 2-0.1 4.1 0.4 6.2 0.5 0.6 0.5 1.3 0 1.9 0 1.4 0 2.8-0.1 4.3-1.6-0.5-3.2-1.1-4.9-1 2.1-0.6 2.1-0.6 1.9-2.9-0.5-5.1-1.1-10.2-1.6-15.3-0.2-1.9-0.4-3.7-0.3-5.6 0.2-3.8-0.2-7.6-0.3-11.5-0.1-4.5-0.3-8.9-0.6-13.4-0.3-5.5-0.1-11.1-0.2-16.6 0-1.1 0.3-2.2 0.3-3.3 0-0.5 0.2-1-0.3-1.4-0.4-0.5 0-1 0.2-1.4s0.4-0.8 0.6-1.3c0.9-2.1 0.9-2.1-0.9-3.6-0.1-0.1-0.2-0.3-0.3-0.4 0.4-2.3 1-4.5 2.5-6.3 0.7 1 1.2 2.2 2.2 2.9z" fill="#CD7057"/> <path d="m310 278.9c1.9 2.4 3.4 5 5.1 7.6 0.3 0.5 0.8 1 0 1.5-0.6 0.7-1.5 0.9-2.2 1.3-1.2 0.8-2.3 1.6-3.3 2.6-0.5 0.4-0.7 1.3-1.7 1.2-0.3 0.7-0.9 1-1.7 1.2-2 0.5-3.9 1.2-6.1 1-1.7-0.1-2.4-0.8-2.5-2.5-0.1-2.6 1.3-4.6 2.9-6.4 2.4-2.6 5-5 8-7 0.5-0.2 0.9-0.5 1.5-0.5z" fill="#CD7057"/> <path d="m307.8 293c0.7-0.2 0.9-1 1.4-1.3 0.5 0.3 0.6 0.9 0.8 1.4 0.9 2.7 2.3 5.2 3.7 7.7 0.7 1.2 1 1.2 2 0.3 2-1.7 3.7-3.6 4.4-6.2 0.5-1.8 0.8-3.7 1.8-5.3 1.1 0.3 1.5 1.4 2.2 2.3 0.9 0.2 0.8 1 0.8 1.7-0.2 1.6-0.2 3.3-0.7 4.9-1.6 3.7-3.9 6.8-8 8-0.8 0.2-1.7 0.5-2.2-0.6-1.5-2.4-3-4.7-4.4-7.1-0.9-1.9-1.9-3.6-1.8-5.8z" fill="#EADAC6"/> <path d="m318.3 320.2c-1.4-0.9-1.8-2.2-1.4-3.9 0.4-2.2 1.3-4.2 2.8-5.9 0.9-1 1.7-1.5 3-0.6 0.2 0.1 0.4 0 0.7 0.1 0.9-0.3 1.4 0.5 2.1 0.8 0.3 0.2 0.6 0.3 0.7 0.7s-0.1 0.8-0.3 1.2c-1.7 2.8-3.8 5.3-6.5 7.2-0.3 0.2-0.6 0.4-1.1 0.4z" fill="#81B29A"/> <path d="m318.3 320.2c3.2-2.4 6-5.2 7.8-8.9 0.3-0.2 0.4 0 0.5 0.2 2.5 1.2 2.5 1.3 1.5 3.9-0.4 0.9-0.8 1.8-1.2 2.8-2.2 2.7-4.8 3.7-7.4 2.8-0.4-0.2-0.9-0.4-1.2-0.8z" fill="#709984"/> <path d="m314.2 305.8c0.6 0.5 1.3 0.5 2 0.3 3.5-0.9 5.5-3.5 7.2-6.4 0.2-0.4 0.4-0.7 0.6-1.1 1.1 0.3 1.6 1.2 2.1 2-0.1 0.8 0 1.7-1 2.1-0.4-0.3-0.6 0.1-0.7 0.3-1.1 1.6-2.6 2.7-4 3.9s-3.1 1.7-4.8 1c-1-0.3-1.9-0.9-1.4-2.1z" fill="#CD7057"/> <path d="m325 302.7c0.4-0.7 0.6-1.4 0.8-2.2-0.2-1.3 0.3-2.2 1.3-3 1.1 0.2 1.8 0.9 2.2 1.9-1.1 3.7-2.4 7.2-3.6 10.9-0.1 0.3-0.2 0.5-0.5 0.7-0.6-0.4-1.3-0.7-1.9-1.1 0.4-2.5 1.1-4.8 1.7-7.2z" fill="#A7A397"/> <path d="m333.1 384.9v-1.9c0.6-0.6 1.3-1.2 2.3-0.8 0.7 0.3 1 1 1 1.8s-0.3 1.6-1.1 1.9c-1.1 0.5-1.7-0.2-2.2-1z" fill="#F2CB8D"/> <path d="m334.1 323.5c-0.1 0.9-0.5 1.6-1.6 1.8-0.8 0.1-1.7-0.9-1.7-1.9 0-1.4 0.6-2.2 1.6-2.2 1 0.1 1.7 1.1 1.7 2.3z" fill="#F2CB8D"/> <path d="m330.8 342.7c0-1 0.9-2.1 1.7-2 1 0.1 1.6 0.9 1.6 1.9 0.1 1.1-0.7 1.9-1.7 1.9-1.1 0-1.6-0.7-1.6-1.8z" fill="#F2CB8E"/> <path d="m331.1 316.3c-0.5-1.2-0.1-2.1 0.8-2.8 0.8 0 1.5 0.1 1.9 0.9 0.5 0.8 0.4 1.6-0.2 2.3-0.9 0.8-1.7 0.3-2.5-0.4z" fill="#F2CB8D"/> <path d="m332.8 372.7c0.1-0.9 0.6-1.6 1.7-1.5 1 0.1 1.5 0.9 1.5 1.8s-0.4 1.6-1.5 1.7c-0.8 0-1.7-1-1.7-2z" fill="#F2CB8D"/> <path d="m334.5 352.9c-0.1 1-0.6 1.8-1.6 1.7-0.9 0-1.6-0.7-1.6-1.7 0-0.9 0.5-1.7 1.5-1.7s1.6 0.7 1.7 1.7z" fill="#F2CA8D"/> <path d="m332.5 363.7c0-0.9 0.5-1.5 1.3-1.6s1.7 0.9 1.7 1.8-0.5 1.5-1.4 1.6c-0.8 0.1-1.6-0.8-1.6-1.8z" fill="#F2CA8D"/> <path d="m332.7 330.9c1.1 0.1 1.4 0.6 1.4 1.6 0 1.1-0.6 1.7-1.6 1.7s-1.5-0.7-1.5-1.7c0.1-1 0.8-1.5 1.7-1.6z" fill="#F2CB8D"/> <path d="m340.7 246.2c-2.7 3.7-5.8 7.1-8.8 10.5-3.9 0-6.4-2.2-8.3-5.4-1.7-2.5-2.7-5.3-3.1-8.3-0.6-4.5-0.3-9.1 0.3-13.6 0.3-1.8 0.6-3.7 2.2-5.1 0.7-0.2 1.1 0.2 1.6 0.6 6 5.1 12.5 9.6 20 12.4 0.4 0.1 0.8 0.3 1 0.7-0.3 1.5-1.3 2.7-2.1 4-1 1.3-1.9 2.8-2.8 4.2z" fill="#FEEDD9"/> <path d="m345.5 237.9c-8-2.6-14.8-7.3-21.1-12.7-0.3-0.3-0.7-0.6-1-0.9-0.4-0.2-0.7-0.4-0.6-0.9 0.7-0.8 0.7-2 1.7-2.5 2.4 2.5 5.1 4.7 8.1 6.4 1.5 0.9 3 1.5 4.6 2.2-4.7-2.1-8.6-5.4-12.2-9.1 0.4-1.4 1.6-2.5 2.9-2.6 1.4 1.5 2.7 3.1 4.3 4.5 2.6 2.2 5.5 3.9 7.5 4.4-3.7-1-7.2-4.4-10.4-8.1-0.3-0.4-0.6-0.8-0.6-1.4 0.4-1 1.3-1.3 2.3-1.5 1.5 0.7 2.3 2.4 3.6 3.1-1-0.9-2-2.1-3-3.3 0.8-0.9 1.9-1.1 3-1.1 2.6 2.7 5.6 5 8.8 6.9-2.5-1.5-4.5-3.7-6.8-5.6-0.4-0.4-0.9-0.7-1.4-0.9-0.3-0.1-0.5-0.3-0.2-0.6 1.2-0.6 2.5-0.3 3.7-0.2 0.6 0.1 1.2 0.3 1.7 0.2 2 0.9 3.5 2.4 4.5 4.3 2.6 4.8 2.8 9.8 1.7 15-0.2 1.6-0.5 3.1-1.1 4.4z" fill="#63362A"/> <path d="m322.8 223.5c0.2 0.3 0.4 0.5 0.6 0.8-1.5 1.3-1.8 3.2-2.2 4.9-0.6 2.8-0.4 5.6-0.6 8.5-0.2 4.4 0.7 8.6 2.7 12.6l0.3 0.9h-0.3c-0.5-0.2-0.8-0.6-1.1-1-4-5.8-6.3-12.1-6.6-19.2-0.2-3.2 0.3-6.4 1.8-9.4 0.4-0.9 0.8-1.9 1.8-2.4 0.2 0 0.5 0 0.6 0.2 1 1.4 2.2 2.6 3 4.1z" fill="#EADAC6"/> <path d="m322.8 223.5c-1.4-1.2-2.3-2.7-3.4-4.2-0.3-0.6 0-1 0.4-1.4 3.6-4.3 8-6.8 13.8-6.1 2.4 0.5 4.8 1.1 6.9 2.5-0.7 0.5-1.5 0.3-2.2 0.2-1.1-0.2-2.2-0.4-3.3 0.1-0.1 0.1-0.2 0.1-0.3 0-1 0.3-2.1 0.5-3.1 1.1-0.1 0.3-0.2 0.4-0.5 0.3-0.8 0.5-1.7 0.6-2.2 1.4-0.3 0.4-0.6 0.8-1.1 0.5-1.2 0.5-1.8 1.7-2.8 2.5 0 0.3 0 0.7-0.5 0.6-0.7 0.8-0.6 2.1-1.7 2.5z" fill="#4B2A20"/> <path d="m333.6 211.9c-5.2-0.3-9.3 1.8-12.8 5.5-0.6 0.6-1.1 1.2-1.4 2-2.1 2.4-3 5.4-3.2 8.5-0.6 8.1 1.9 15.3 6.3 22 0.3 0.5 0.6 0.9 0.9 1.4-1.1 0.1-1.6-0.8-2.1-1.5-3.5-4.6-5.6-9.8-6.3-15.6-0.5-4.3-0.2-8.5 1.4-12.6 0.8-2 2.2-3.6 3.8-5.1 1.8-1.6 3.6-3.1 5.9-3.9 2.5-1 5-1.4 7.5-0.7z" fill="#CD7058"/> <path d="m328.3 283.3c-0.5-0.3-1-0.7-1.1-1.4v-3.9c0-4.1 0.2-8.3 0.6-12.4 0-0.3 0.2-0.6 0.3-0.9 1.1-0.2 1.9 0.2 2.5 1.1 0.2 0.7 0.2 1.4 0.2 2.1 0 4.2-0.1 8.5 0 12.7 0 0.7 0 1.4-0.4 2-0.6 0.7-1.2 1-2.1 0.7z" fill="#CD7057"/> <path d="m330.3 265.7c-0.7-0.3-1.5-0.6-2.2-0.9-1.9-1.5-2.9-3.4-3.3-5.7-0.1-0.5-0.3-1.2 0.4-1.5 0.8-0.2 1 0.5 1.2 1 0.3 0.8 0.6 1.6 0.9 2.3 0.6 1.5 1.8 2.2 3.3 2.7 0.4 0.1 5.1 1.7 8 1.2 1.9-0.3 3.7-1 5.6-1.5 0.8-0.5 1.5-0.6 2.2 0.1-0.3 0.6-0.6 1.2-1.1 1.6-4 2-8.2 3-12.6 1.8-1-0.2-1.9-0.3-2.4-1.1z" fill="#EDC78B"/> <path d="m350.5 257.4c-0.3 0.7-0.9 1.3-1.3 1.9-1.2 0.6-2.6 0.7-3.9 0.8-1.3 0.6-2.6 1.2-3.9 1.6-2.6 0.9-4.9 0.1-6-2.2 0-0.5 0-1 0.5-1.2 0.6-0.2 0.8 0.3 1 0.7 0.9 1.1 2.4 1.4 4.2 0.7 1.4-0.5 2.7-1.2 4-1.8 1.7-0.7 3.5-0.8 5.4-0.5z" fill="#ECC68B"/> <path d="m345.2 260c1.2-0.8 2.5-0.9 3.9-0.8-0.9 1.4-1.9 2.8-2.8 4.2-0.7 0-1.5-0.1-2.2-0.1-0.1-1.2 0.8-2.1 1.1-3.3z" fill="#CD7158"/> <path d="m350.8 314.1c-4-2-7.5-4.8-11.1-7.4-2.1-1.5-4-3.2-6.1-4.8-0.5-0.4-1-0.9-0.5-1.6 2-2.7 3.3-6 5.7-8.5 0.8-0.8 1.3-1.9 2.6-2.1 0.6 1.2 1.4 1 2.2 0.4 1.6-1.1 2-3.4 0.6-5.3-1.2-1.6-0.8-2.5 0.2-3.9 1.6-2.3 2.8-4.9 4.4-7.1 0.6-0.9 0.9-0.9 1.5 0 2.4 3.9 4.1 8.2 5.4 12.6 0.7 2.2 1.1 4.5 1.7 6.7 0.2 0.7 0.1 1.1-0.4 1.6-0.6 0.5-1.1 0.4-1.6 0.1-2-1.1-3.7-2.6-5.8-3.5-1.1-0.5-2.1-1.1-3.2-1.7-0.5-0.3-1-0.5-1.5 0s-0.4 1.1-0.1 1.7 0.6 1.1 0.9 1.7c2.5 5.7 3.9 11.8 4.9 17.9 0.3 0.9 0.1 2.1 0.2 3.2z" fill="#E17A5F"/> <path d="m341.3 289.7c-2.9 2.5-4.9 5.6-6.7 8.9-0.4 0.7-0.6 1.6-1.6 1.7-0.1 0-0.2 0-0.3-0.1-0.3-0.7 0.2-1.3 0.4-1.8 1.4-2.8 2-5.7 1.9-8.8 0-1.9-0.6-3.6-1.6-5.2-0.4-0.7-1-1.1-1.9-1.2-0.4-0.1-0.9 0-1.1-0.6 1.2-0.8 2.5-0.8 3.9 0.1 0.9 0.4 1.7 0.7 2.6 1.1 0.5 0.3 1.1 0.6 1.6 0.9 0.9 0.8 1.9 1.6 2.7 2.5s1 1.7 0.1 2.5z" fill="#EADAC6"/> <path d="m324.4 423.1c0.1 2.2 0.1 2.1 2.2 1.8 3.5-0.4 7.1-0.7 10.6-1.2 0.6-0.1 1.2-0.1 1.4 0.8 0.9 3.3 1.8 6.6 1.6 10.2-0.1 1.5-0.4 3-0.6 4.5-0.2 1-1 1.1-1.8 1.1-3.2 0.2-6.4-0.4-9.6-1-1.1-0.2-2.2-0.4-3.4-0.7-1-1-1.3-2.2-1.3-3.6v-3.1c-0.4-1.5-0.2-3-0.2-4.5 0-1.1 0.2-2.1 0.3-3.2 0.2-0.4 0.2-0.9 0.8-1.1z" fill="#F3CC8E"/> <path d="m377.1 292.5c0.2-1.9-0.3-3.9 0.3-5.8l0.1 0.1c0.5 0.5 0.4 1.1 0.4 1.7 0 0.7 0.3 1.1 1.1 1.1 1.8 0 3.6 0 5.4-0.4 0.6 0.9 0.1 1.9 0.3 2.8v4.1c-0.2 0.2-0.5 0.2-0.8 0.1-2-0.8-4.2-1.4-6-2.7-0.5-0.2-1-0.4-0.8-1z" fill="#D1B17B"/> <path d="m384.3 289.1c-0.6 1-1.7 0.6-2.5 0.8-1.1 0.2-2.2 0-3.3 0.1-0.8 0-1.2-0.3-1.1-1.1 0.1-0.7 0-1.5 0-2.2 0.5-0.5 0.9-0.1 1.4 0.1 1.8 0.8 3.6 1.6 5.5 2.3z" fill="#BA9C6D"/> <path d="m409.7 315.2c0.5 0.3 0.7 0.8 0.8 1.4 0.2 3.8-0.3 7.6-0.3 11.5 0 0.9 0.2 1.2 1.2 1.3 4 0.4 8 0.3 11.9-0.3 1.2-0.2 2.5 0 3.7 0 0 2.9 0.3 2.5-2.5 2.5h-12.4c-0.9 0-1.7 0.1-2.2 1.1-0.3 0.6-0.9 1.1-1.5 1.1-3 0-6 0.3-9.1-0.2-0.6-0.1-0.9-0.4-1.2-0.8 0.4-0.5 0.9-0.4 1.4-0.3 2.4 0.3 4.8 0.1 7.2 0.1 1.7 0 2.1-0.5 1.9-2.1-0.3-2.4 0-4.8 0.2-7.1 0-1.5-0.1-3.1 0.1-4.6 0.3-0.7 0.1-1.4 0.2-2 0.2-0.8 0.2-1.3 0.6-1.6z" fill="#D1B07B"/> <path d="m414.2 324.1c0 0.7-0.3 1-1 1.1-0.6 0-0.9-0.3-0.9-0.8 0-0.6 0.3-1.1 1-1.1 0.6-0.1 0.9 0.3 0.9 0.8z" fill="#B99C6D"/> <path d="m431.3 324.3c0 0.7-0.6 0.9-1.1 1s-0.8-0.2-0.8-0.7c0-0.6 0.4-1 1-1.1s0.8 0.4 0.9 0.8z" fill="#BB9D6E"/> <path d="m422.2 324c0 0.5-0.3 1-0.9 1.1-0.4 0-0.8-0.2-0.8-0.8s0.3-1.1 1-1.1c0.5-0.1 0.7 0.3 0.7 0.8z" fill="#BA9D6E"/> <path d="m441.2 323.6c-0.2 0.4-0.3 0.9-0.8 0.9-0.4 0-0.7-0.2-0.7-0.7s0.3-0.8 0.8-0.9c0.4 0 0.7 0.2 0.7 0.7z" fill="#BD9F70"/> <path d="m324.4 422.6c-0.7-1.2-0.1-2.6-0.8-3.8-0.2-4.3 0.3-8.6 0.7-12.9 0.3-2.7 0.4-5.4 0.6-8.1 0.1-1.4 0.2-2.8 0.3-4.3 0-0.5 0.1-0.8 0.7-0.8 2.3-0.2 4.6-0.5 6.9-0.1 1.1 0.2 2.2 0.1 3.3 0.1 0.8 0 1.1 0.3 1 1.1v0.4c0.1 5.2 0.1 10.3 0.3 15.5 0.2 3.9 0.4 7.8 1.3 11.6 0.1 0.3 0 0.6 0 0.8-4.7-0.1-9.5 0.7-14.3 0.5z" fill="#81B29A"/> <path d="m409.4 323.2c-0.1 1.6-0.1 3.3-0.2 4.9v1.7c0.3 2.9 0.1 3.1-2.7 3.1-2.7 0-5.4 0.1-8.1-0.3-0.4-0.4-0.7-0.8-0.9-1.4v-2.5c-0.3-0.4-0.3-0.8 0.1-1.1 0.7 0.1 1.3 0.1 1.9-0.2s1.2-0.8 1.8-0.1c0.1 0.3 0.1 0.6 0.2 0.9 0.7 1.9 2.3 0.5 3.4 0.9 0.8 0.3 1-0.3 1-1 0-1.1-0.1-2.1 0.1-3.2 0-0.2 0.1-0.4 0.2-0.6 1-0.5 2-1.1 3.2-1.1z" fill="#E17A5F"/> <path d="m414.6 302.7c0.6 0.2 1 0.5 0.9 1.1s-0.4 0.9-1 0.9-0.9-0.2-0.8-0.8c-0.1-0.7 0.3-1 0.9-1.2z" fill="#B99C6D"/> <path d="m422.2 304.3c-0.6 0-0.8-0.3-0.8-0.7 0-0.6 0.4-1 1-1.1 0.5-0.1 0.8 0.3 0.8 0.7 0 0.7-0.5 1-1 1.1z" fill="#B99C6D"/> <path d="m431.6 303c-0.1 0.5-0.3 0.9-0.8 0.9s-0.8-0.3-0.8-0.9c0-0.5 0.2-0.9 0.8-0.9 0.5 0.1 0.8 0.4 0.8 0.9z" fill="#BB9E6F"/> <path d="m438.9 301.9c0.5 0 0.8 0.3 0.8 0.8 0 0.6-0.4 0.9-1 0.9-0.4 0-0.9-0.1-0.8-0.7 0-0.6 0.3-1 1-1z" fill="#BB9D6E"/> <path d="m377.1 292.5c0.8 0.9 1.9 1.4 3 1.9 1.4 0.7 3 1.2 4.5 1.7 3.1 1.4 6.3 2.5 9.8 2.3 1.6-0.1 3.3-0.3 4.9 0.2 0.6 0.7 0.4 1.5 0.5 2.3 0.1 1.1-0.1 2.3-0.1 3.4 0.1 1.5 0 3.1-0.6 4.5-0.4 0.4-1 0.5-1.5 0.5-2.1 0-4.2 0.1-6.3-0.3-1.7-0.3-3.5-0.2-5.2-0.3-2.7 0-5.2-0.7-7.4-2.3-0.6-0.4-1.2-0.9-1.5-1.5-2.7-1.3-1.9-3.9-2.1-6-0.2-1.7 0.1-3.5 0.2-5.2-0.1-1.2 0.8-1.3 1.8-1.2z" fill="#E4C087"/> <path d="m399.3 304.4v-5.8c0.3-0.6 0.2-1.2 0.3-1.8 0.1-1.9 0.5-2.6 2.3-2.8 2.7-0.2 5.5-0.6 8.2 0.4 0.7 1.9 1 3.8 0.6 5.8-0.9 0.8-1.9 1.4-3.2 0.8-0.3-0.4-0.3-0.9-0.2-1.3 0.4-1.8 0.4-1.9-1.5-1.9-2.7 0-2.7 0-3 2.7-0.1 0.6 0 1.2-0.2 1.8-0.5 0.8-1.8 0.3-2.1 1.4-0.3 0.4-0.6 0.8-1.2 0.7z" fill="#E17A5F"/> <path d="m330.5 282.7c2.7 0.1 4.2 1.5 4.8 4.5 0.9 4.7-0.1 8.9-2.5 13-0.7 0.1-1.3 0-2-0.2-0.7 0.2-1.2-0.1-1.6-0.7-0.7-0.6-1.3-1.1-2-1.7-1.7-0.8-2.4-2.3-2.5-4.1 0-0.6-0.1-1.2-0.5-1.7-0.2-1.7 0.2-3.3 0.6-5 0.9-1.5 2.1-2.7 3.6-3.6 0.6-0.2 1.1-0.4 1.7-0.6 0.1 0 0.2 0 0.4 0.1z" fill="#FEEDD9"/> <path d="m329.2 299.4c0.5 0.2 1.1 0.5 1.6 0.7-0.4 1.8-1.3 3.4-1.8 5.1-0.8 2.1-1.5 4.2-2.3 6.4-0.2-0.1-0.4-0.2-0.5-0.2-0.3-0.1-0.6-0.2-0.8-0.3 0-1.3 0.6-2.4 1-3.6 0.7-2.3 1.5-4.5 2.3-6.8 0-0.5 0-1 0.5-1.3z" fill="#8D8A80"/> <path d="m397.8 327.6c-0.3 0.3-0.2 0.7-0.3 1.1-3.5-0.3-6.9-0.9-10.3-1.4-3.7-0.6-6.4-3.1-9.7-4.5-0.5-0.2-1-0.7-1.5 0.1-0.1-0.4 0.1-0.9-0.3-1.1-1.2-0.5-1-1.4-1.1-2.4l-0.3-6.9c-0.1-1.8 0.2-2.1 1.9-1.7 0.5 0.1 0.6-0.1 0.8-0.4 1.6 1.7 3.7 2.5 5.6 3.6 0.6 0.4 0.9 0.2 0.9-0.5 0-1-0.1-1.9 0.1-2.9 0.1-0.4 0.2-0.8 0.7-0.9 0.4-0.1 1-0.2 1 0.5-0.8-0.1-1.2 0.2-1.1 1.1v0.4c0.1 1.2-0.6 2.9 0.3 3.6 1.2 1.1 2.9 1.7 4.6 2.1 2.7 0.6 5.4 0 8.1 0.6 0.5 0.1 0.9-0.1 0.9-0.7 0-0.4-0.1-0.8 0.2-1.2 0.7 0.7 0.4 1.5 0.4 2.3-0.1 2-0.6 4-0.5 6 0 1 0.4 2.2-0.4 3.2z" fill="#E4C087"/> <path d="m385.4 310.2c-1-0.6-1.4-0.2-1.4 0.9v4.1c-2.4-1.2-4.6-2.3-6.6-3.7-0.3-0.2-0.3-0.7-0.4-1v-5.5l1.8 1.2c2.4 1.6 5.1 2.2 7.9 2.2 4-0.1 8 0.9 12.1 0.5l0.3 0.3c0.1 0.5 0.1 0.9-0.3 1.3-4.4-0.4-8.9-0.3-13.4-0.3z" fill="#D1B07B"/> <path d="m397.9 324.3c-0.2-2.8 0.6-5.5 0.5-8.3 0.8-1.9 1.2-2.2 4-1.9 1.8 0.2 3.7 0.2 5.5 0.2 0.8 0 1.5 0.1 1.9 0.8-0.1 1.1 0.2 2.3-0.3 3.4-1.2 0.2-2.2 0.6-2.3 2.1 0 0.4-0.3 0.7-0.7 0.2-0.4-0.9-0.1-1.8-0.4-2.7-1.1-0.6-2.3-0.3-3.5-0.2-0.7 0.1-0.7 0.6-0.7 1.1-0.1 1.2 0.2 2.5-0.2 3.7l-0.3 0.3c-1.2-0.9-2.3-0.6-3 0.8-0.1 0.2-0.2 0.5-0.5 0.5z" fill="#E17A5F"/> <path d="m398.9 310.5v-1.4c0.8-0.8 1.6-1.5 2.9-1.1 0.4 0.8 1.1 1.1 2 1 1-0.1 2.2 0.5 3.1-0.4 0.3-0.9-0.1-1.9 0.4-2.7 0.9-0.7 1.9-1.3 3.2-0.9-0.3 1.9-0.2 3.8-0.2 5.6 0 1-0.6 1.6-1.6 1.6-3-0.1-6 0.3-8.9-0.3-0.3-0.5-0.6-1-0.9-1.4z" fill="#E17A5F"/> <path d="m322 289.7c-1.1 4.7-2.1 9.4-6.6 12.3-0.5 0.3-1 0.7-1.4 0-2-3.3-4-6.5-4.8-10.3 1.6-1.7 3.5-3.1 5.8-3.7 2.6-0.6 5-0.1 7 1.7z" fill="#FEEDD9"/> <path d="m330.5 282.7h-0.5c0.3-0.5 0.3-1.1 0.3-1.6v-15.4c4.2 1.7 8.4 1.7 12.6-0.1 0.7-0.3 1.4-0.6 2.3-0.5-3.3 5.1-6.7 10-9.6 15.3-0.4 0.8-0.8 1.6-1.2 2.3-1.3 0-2.6-0.6-3.9 0z" fill="#E17A5F"/> <path d="m410.5 304.9c-1 0.2-1.9 0.8-3 0.8-0.5-0.4-0.4-1-0.4-1.6v-1.5c0-0.6-0.1-1.2 0.4-1.6 1-0.3 2-0.6 3-0.8 0.1 1.6 0 3.2 0 4.7z" fill="#D47259"/> <path d="m324.7 293.6c0.5 1.6 1.4 2.9 2.5 4.1-0.7 0.8-0.9 1.9-1.4 2.9-0.6-0.7-1.3-1.3-1.9-2 0.3-1.7 0.5-3.3 0.8-5z" fill="#F2CC8F"/> <path d="m327.8 218c0.4-0.2 0.6-0.6 1.1-0.5 2.9 4 6.5 7.3 11.1 9.2 0.5 0.2 1.1 0.4 1.6 0.7-1.9 0.1-3.7-0.6-5.3-1.5-3.3-1.8-6-4.3-8.3-7.3-0.2-0.2-0.2-0.4-0.2-0.6z" fill="#8D4E3C"/> <path d="m324.5 221c0.2-0.2 0.4-0.4 0.5-0.6 0.2 0.1 0.5 0.2 0.7 0.4 3.5 3.6 7.5 6.6 12 9-1.7-0.2-3.2-0.9-4.6-1.7-2.9-1.6-5.6-3.5-7.9-5.9-0.3-0.4-0.7-0.6-0.7-1.2z" fill="#8D4E3C"/> <path d="m334.7 214.7h0.3c0.4 0 0.8-0.1 1.2 0.2 2.7 2.5 5.3 5 8.7 7.2-1.4-0.1-2.1-0.7-2.8-1.2-2.5-1.4-4.7-3.2-6.7-5.2-0.4-0.3-0.7-0.6-0.7-1z" fill="#8D4E3C"/> <path d="m331.1 216.1c0.2-0.1 0.4-0.2 0.5-0.3 0.7-0.1 0.9 0.5 1.3 0.9 1 1 1.7 2.4 3.1 3-2.3-0.4-3.5-2.1-4.9-3.6z" fill="#8C4D3B"/> <path d="m406.7 321c0.2-0.3 0.2-0.6 0.2-0.9 0.1-1.2 1.2-2 2.4-1.8l0.1 0.2c0 1.6-0.1 3.1-0.1 4.7-1 0.4-1.8 1.2-2.9 1.1-0.5-0.5-0.1-1-0.2-1.6 0.1-0.6 0-1.2 0.5-1.7z" fill="#D47259"/> <path d="m406.4 324.8v4.1c0 0.5-0.1 0.9-0.8 0.8-1.1-0.3-2.3-0.1-3.4-0.1-1 0-1.5-0.1-1.1-1.3 0.1-0.4 0-0.8 0-1.2-0.4-0.4-0.4-0.9-0.1-1.4 1.5-1 3.3-1 5-1.1 0.1 0 0.3 0.1 0.4 0.2z" fill="#E0BC84"/> <path d="m401.2 325.7c0 0.5 0 0.9-0.1 1.4-0.8 0.4-1.6 0.7-2.4 1.1-0.7 0.4-0.9 0.1-0.9-0.6 0-1.1 0-2.2 0.1-3.3 0.1-1.2 0.9-1.8 2-2.3 1-0.4 1.5-0.3 1.3 0.9-0.3 0.6-1 0.3-1.4 0.7 0.4 0.5 1.3 0.2 1.6 0.9 0.2 0.4 0.1 0.8-0.2 1.2z" fill="#D37259"/> <path d="m401.1 324.3c-0.8-0.1-2 0.3-2.1-0.7 0-1.2 1.4-0.5 2.1-0.8h0.2c0.5-0.4 1.1-0.4 1.7-0.4 1.2 0 2.4-0.4 3.5 0.4-0.1 0.5-0.1 0.9-0.2 1.4 0 0.2-0.1 0.3-0.1 0.5h-0.3c-0.9-0.5-1.9 0-2.8 0-0.6 0-1.3 0.2-2-0.4z" fill="#B7986B"/> <path d="m401.7 308c-0.9 0.4-1.8 0.7-2.7 1.1 0-0.1 0-0.2-0.1-0.3 0.1-1.5 0.3-3 0.4-4.4 0.3-0.2 0.8-0.3 0.8-0.8 0.7-0.3 1.4-0.2 2.1 0.2 0.3 0.4 0.3 0.8 0.3 1.2-0.1 1 0.2 2.2-0.8 3z" fill="#D37359"/> <path d="m396.1 303c0.5 0 0.8 0.3 0.8 0.8s-0.4 0.8-0.9 0.8c-0.5 0.1-0.8-0.3-0.7-0.7 0-0.5 0.3-0.9 0.8-0.9z" fill="#BA9C6E"/> <path d="m407.6 301.1c0 0.5-0.1 1.1-0.1 1.6-1.3 0.4-2.5 0.5-3.7-0.3-0.6-1.3-0.2-2.5 0.2-3.7 0.2-0.8 1.7-1.1 3-0.7 1 0.3 0.8 1 0.6 1.8-0.1 0.3 0 0.8 0 1.3z" fill="#E4C087"/> <path d="m407.5 299.7c0.2-1.3-0.6-1.5-1.6-1.4-0.9 0.1-1.9-0.2-1.7 1.3 0.1 0.9-0.4 1.9-0.2 2.8-0.6 0.5-1.1 0.5-1.7 0l0.3-4.2c0-0.6 0.3-0.8 0.9-0.8h2.6c1.9 0 2 0.3 1.4 2.3z" fill="#D3B17C"/> <path d="m402.2 302.4h1.7c1.2 0.1 2.4-0.1 3.5 0.3v1.4c-0.1 0.1-0.3 0.1-0.4 0-1.3-0.3-2.5-0.3-3.8-0.2-0.5 0-0.9 0.2-1.3-0.2-0.6 0-1.3 0.1-1.9-0.3 0.2-1.4 1.4-0.8 2.2-1z" fill="#B8996B"/> <path d="m395.3 323c-0.1 0.6-0.3 1.1-1 1.1-0.5 0-0.7-0.2-0.7-0.7 0-0.6 0.3-1.1 0.9-1.2s0.8 0.3 0.8 0.8z" fill="#B99C6D"/> <path d="m406.6 322.9h-3.5c-0.9-1.5-0.5-3-0.3-4.5 0.1-0.6 0.6-0.7 1.2-0.7h2.7c0 1.1 0 2.2 0.1 3.3-0.1 0.6-0.1 1.3-0.2 1.9z" fill="#E4C087"/> <path d="m406.7 317.7c-0.8 0.4-1.7 0.3-2.6 0.3-0.8 0-1.1 0.3-1.1 1v4h-1.7c0-1.5 0.1-2.9 0-4.4 0-0.8 0.2-1.2 1.1-1.1 1.5 0.1 2.9-0.5 4.3 0.2z" fill="#D4B17C"/> <path d="m407.2 304.1h0.2c0 0.5 0 1.1 0.1 1.6v3.3c-1.2 0.4-2.4-0.1-3.6 0-0.5 0-0.8-0.3-0.8-0.8 0-1.3-0.2-2.6 0.6-3.7 1.1-0.7 2.3-0.7 3.5-0.4z" fill="#E4C087"/> <path d="m403.9 304.7c-0.6 1.1-0.1 2.4-0.5 3.5-0.2 0.4 0.3 0.6 0.7 0.6 1.1 0.1 2.3 0.2 3.4 0.3-1.7 0.6-3.5 0.2-5.2 0.2-0.7 0-0.6-0.8-0.6-1.3 0.4-1 0.2-2 0.3-3 0.6-0.6 1.2-0.9 1.9-0.3z" fill="#D3B17C"/> <path d="m331.4 272.6c0-0.9 0.3-1.5 1.2-1.4 0.9 0 1.4 0.6 1.5 1.5 0 0.8-0.4 1.5-1.3 1.5-1-0.1-1.4-0.8-1.4-1.6z" fill="#F2CA8D"/> <path d="m332.1 277.8c0.8 0.2 1.4 0.5 1.3 1.3-0.1 0.7-0.5 1.2-1.3 1.2-0.7-0.1-1-0.5-1-1.2 0-0.8 0.4-1.1 1-1.3z" fill="#F2CA8D"/> <path d="m401.1 324.3h3.9c0.4 0 1-0.2 1.1 0.5-1.6 0.3-3.3 0.6-4.9 0.9 0-0.5 0-0.9-0.1-1.4z" fill="#937B56"/> <path d="m403.9 304.7c-0.6 0.1-1.3 0.2-1.9 0.3 0-0.4 0-0.7-0.1-1.1 1.4-0.6 2.8-0.3 4.2-0.3 0.4 0 1-0.1 1.1 0.5l-3.3 0.6z" fill="#987F59"/> <path d="m413.9 216.9c3.7 0.5 7.4 1 11 1.5 2 0.3 4.1 0.5 6.1 0.7 4.1 0.4 8.2 0.8 12.3 1.3 3.9 0.5 7.9 0.9 11.9 1.5 4.2 0.6 8.4 1.6 12.6 2.3 4 0.7 8 1.2 12 1.8 3.8 0.6 7.5 1.1 11.3 1.6 2.8 0.4 5.6 0.6 8.3 0.9 3.3 0.4 6.6 0.8 10 1.2 3.8 0.5 7.5 0.9 11.3 1.6 4.4 0.7 8.8 0.9 13.3 1.3 1.9 0.2 3.9-0.1 5.8 0.3 0.3 0.1 0.5 0.1 0.7 0.3 0.1 0.1 0 0.2 0 0.3-3.7 0.9-6.3 3-7.3 6.7-0.2 0.8-0.4 1.6 0.2 2.4 0.3 0.8-0.2 1.1-0.9 1.4-4.1-1-7.3 0.4-9.8 3.6-1 1.3-1.2 2.8-1 4.4 0.2 0.9-0.3 1.6-1.1 2-8.5 1.2-16.9 0-25.3-1.5-6-1.1-12-1.6-18-2.3-14.4-1.7-28.6-4.4-42.3-9.3-9-3.2-17.8-6.6-26.3-10.9-7-3.5-12.9-8.5-18.4-14.1-0.6-0.4-1.1-0.9-1.1-1.7 0.1-0.1 0.2-0.2 0.4-0.3 0.8-0.3 1.7-0.2 2.5 0 3.9 1 8 1 12 1.5 2.7 0.3 5.5 0.6 8.2 0.9 0.5 0 1.2 0.1 1.6 0.6z" fill="#76A18C"/> <path d="m389.3 214.1c0-0.6-0.2-1.2 0.2-1.7 4.6-2.9 9.5-5.1 14.6-6.9 13-4.6 26.1-8.5 39.5-11.8 7-1.7 14.2-3 21.3-4.1 5.8-0.8 11.5-1.6 17.3-2.2 3.2-0.3 6.3-0.4 9.5-0.6 7.5-0.5 15-0.1 22.5-0.2 3-0.1 6 0.4 9.2 0.9-1.8 0.8-3.5 0.4-5.2 0.7-4.7 1-9.5 0.4-14.2 0.6-5 0.3-9.9 0.2-14.9 0.6-4.9 0.4-9.9 0.9-14.8 1.6-7.5 1-15 2.1-22.4 3.6s-14.7 3.4-21.9 5.4c-9 2.5-17.8 5.3-26.6 8.3-0.4 0.1-0.9 0.2-1.3 0.7 1.3 0.1 2.4-0.4 3.6-0.6 7.9-1.7 15.8-3.1 23.7-4.3 4.2-0.7 8.3-1.6 12.5-2.1 4.7-0.6 9.4-1.3 14.2-1.8 5.2-0.6 10.5-1 15.7-1.6 3.4-0.4 6.9-0.4 10.3-0.6 5.4-0.3 10.7-0.6 16.1-0.9 6.3-0.3 12.6-0.2 18.9-0.1 4.2 0.1 8.5 0.4 12.7 1.6h-1.3c-7.4 0.4-14.9 0.5-22.4 0.6-4.2 0.1-8.5 0.2-12.7 0.5-4.7 0.3-9.4 0.8-14.1 1l-8.7 0.6c-3.7 0.3-7.4 0.6-11.1 1.1-2.8 0.3-5.6 0.6-8.3 0.9-4.4 0.5-8.7 1.1-13.1 1.7-5 0.7-10 1.6-14.9 2.4-6 0.9-11.9 2-17.9 3.2-0.9 0.2-1.9 0-2.8 0.6 1.3 0.2 2.6-0.2 3.9-0.3 3.6-0.3 7.1-0.6 10.7-0.8 3.8-0.3 7.6-0.7 11.4-1 2.7-0.2 5.4-0.5 8.1-0.6 5.9-0.3 11.7-0.8 17.6-0.9 1.9 0 3.9-0.2 5.8-0.2 5.9 0 11.9-0.1 17.8 0 4 0.1 8 0.4 12 0.7 3.9 0.3 7.9 0.7 11.8 1.2 7.6 0.9 15.1 1.9 22.5 3.7 1.5 0.3 3 0.5 4.5 1.5-1.5 0-2.6-0.5-3.7-0.5-6.8 0.2-13.3-1.5-19.9-2.2-4.4-0.5-8.8-1.1-13.3-1.5-4.4-0.4-8.9-0.6-13.3-0.9-6.6-0.4-13.3-0.2-19.9-0.2-4.4 0-8.8 0.3-13.2 0.5s-8.8 0.5-13.2 0.8c-5.4 0.4-10.8 0.9-16.2 1.3l-9.3 0.6c-2.3 0.2-4.6 0.4-6.8 0.7 2.2 0.2 4.5 0.5 6.7 0.6 4.9 0.3 9.7 0.7 14.5 1.1 4.2 0.4 8.5 0.9 12.7 1.2 5.5 0.3 11.1 0.8 16.6 1.4 3.9 0.4 7.8 0.7 11.6 1.1 4.9 0.6 9.8 1.1 14.7 1.8 5.3 0.8 10.7 1.6 16 2.6 5.5 1 11 2 16.5 3.2 2 0.4 4.1 0.8 6.1 1.5-2.2-0.1-4.5-0.2-6.7-0.3-0.5 0-0.9-0.2-1.4-0.2-4.5 0.3-8.8-0.8-13.1-1.5-5.6-0.9-11.2-1.9-16.8-2.7-4.8-0.6-9.5-1.3-14.3-1.9-3.1-0.4-6.3-0.6-9.4-0.9s-6.2-0.7-9.3-1c-2.5-0.2-4.9-0.4-7.4-0.6-3.5-0.3-7-0.6-10.5-1-3.1-0.4-6.3-0.7-9.4-0.9-0.9 0-1.9-0.8-2.8-0.1-2.8-0.3-5.6-0.6-8.4-0.9-2.3-0.2-4.5-0.6-6.8-0.7-2-0.1-3.9-0.2-5.8-0.8h-3.8z" fill="#78A48E"/> </svg>